<svg width="512" height="512" viewBox="0 0 512 512" fill="none" xmlns="http://www.w3.org/2000/svg">
  <rect width="512" height="512" rx="100" fill="#FF6B00"/>
  <path d="M168 140H236V308C236 324.667 232.667 339 226 351C219.333 362.333 209.667 371 197 377C184.333 383 169 386 151 386C138.333 386 127 384.333 117 381C107 377.667 98.6667 372.667 92 366C85.3333 359.333 80.3333 351.333 77 342L136 318C137.333 322.667 139.667 326.333 143 329C146.333 331.667 150.333 333 155 333C160.333 333 164.333 331.333 167 328C170.333 324.667 172 319.667 172 313V140Z" fill="white"/>
  <path d="M244 140L334 316V140H398V386H330L240 210V386H176V140H244Z" fill="white"/>
</svg> 